<svg xmlns="http://www.w3.org/2000/svg" viewBox="0 0 32 32" id="Comment"><g data-name="Layer 7" fill="#4b6bfb" class="color000000 svgShape"><path d="M25,2H7A6,6,0,0,0,1,8V18a6,6,0,0,0,6,6h8.68l9.74,6.82a1,1,0,0,0,1.56-1l-.85-6A6,6,0,0,0,31,18V8A6,6,0,0,0,25,2Zm4,16a4,4,0,0,1-4,4,1,1,0,0,0-1,1.14l.67,4.72-8.11-5.68A1,1,0,0,0,16,22H7a4,4,0,0,1-4-4V8A4,4,0,0,1,7,4H25a4,4,0,0,1,4,4Z" fill="#4b6bfb" class="color000000 svgShape"></path><path d="M25 7H12a1 1 0 0 0 0 2H25a1 1 0 0 0 0-2zM25 12H7a1 1 0 0 0 0 2H25a1 1 0 0 0 0-2zM25 17H7a1 1 0 0 0 0 2H25a1 1 0 0 0 0-2z" fill="#4b6bfb" class="color000000 svgShape"></path></g></svg>