<svg id="SvgjsSvg1001" width="288" height="288" xmlns="http://www.w3.org/2000/svg" version="1.1" xmlns:xlink="http://www.w3.org/1999/xlink" xmlns:svgjs="http://svgjs.com/svgjs"><defs id="SvgjsDefs1002"></defs><g id="SvgjsG1008"><svg xmlns="http://www.w3.org/2000/svg" viewBox="0 0 64 64" width="288" height="288"><path d="M47.65966,35.14996c-.58508,.60681-1.26489,1.33167-2.12994,1.48999-.8559,.19531-2.6651,.61066-3.53003,.81006v2.04999H17.99969V11.5c0-1.10004,.90002-2,2-2h20c1.09998,0,2,.89996,2,2v6.69l2-2v-4.69c0-2.21002-1.78998-4-4-4H19.99969c-2.21002,0-4,1.78998-4,4v28h-2V11.5c0-3.31,2.69-6,6-6h18.87c-.44-1.73004-2.01001-3-3.87-3H14.99969c-2.21002,0-4,1.78998-4,4V31.5h-2c-2.76001,0-5,2.23999-5,5v18c0,3.85999,3.14001,7,7,7H42.99969c3.85999,0,7-3.14001,7-7v-18c0-1.04004-.32001-2.01001-.87-2.82001l-1.47003,1.46997Zm.34003,19.35004c0,2.76001-2.23999,5-5,5H10.99969c-2.76001,0-5-2.23999-5-5v-14c.83002,.63,1.87,1,3,1H44.99969c1.13,0,2.16998-.37,3-1v14Z" fill="#000000" class="color000 svgShape"></path><path d="M34.49969 43.5h-15c-5.28204.16589-5.28876 7.83197.00006 8-.00006 0 14.99994 0 14.99994 0 5.2821-.16559 5.28882-7.83234 0-8zM36.99969 17.5c1.30957-.0202 1.31848-1.97797 0-2H20.99969c-1.31061.02075-1.3175 1.97778.00006 2-.00006 0 15.99994 0 15.99994 0zM37.99969 21.5c0-.55273-.44727-1-1-1H20.99969c-.55225 0-1 .44727-1 1s.44775 1 1 1h16c.55273 0 1-.44727 1-1zM34.99969 26.5c0-.55273-.44727-1-1-1h-13c-.55225 0-1 .44727-1 1s.44775 1 1 1h13c.55273 0 1-.44727 1-1zM31.99969 30.5h-11c-1.3111.02094-1.31708 1.97784.00006 2-.00006 0 10.99994 0 10.99994 0 1.31122-.02069 1.31714-1.97809 0-2zM20.99969 35.5c-1.3111.02094-1.31708 1.97784.00006 2-.00006 0 10.99994 0 10.99994 0 1.31122-.02069 1.31714-1.97809 0-2h-11zM51.9497 11.5c-.28003 0-.54004.09998-.73004.28998l-14.11188 14.12195c-.14429.13776-.23853.31934-.2981.50806l-2.12 9.19c-.08002.34003.02002.69.27002.92999.23877.24316.59741.33813.92999.27002l5.07001-1.16998 4.12-.95001c.07355-.02094.1438-.05804.216-.08453.10968-.05542.20959-.12567.2926-.21411l14.1214-14.11139c.19-.20001.29999-.45996.28998-.72998-.15027-5.40387-4.93768-8.09601-8.04999-8.04999zm-10.63 22c-.76929-1.43256-1.90503-2.57178-3.32001-3.33002l.56677-2.44531c2.29877.45526 4.51056 1.76392 5.21564 5.20642l-2.4624.56891zm4.21643-1.88562c-.35138-1.21051-.92963-2.1554-1.43219-2.80457l10.65259-10.65259c.39062-.39062.39062-1.02344 0-1.41406s-1.02344-.39062-1.41406 0l-10.65247 10.65247c-.95935-.74957-1.9472-1.17487-2.81433-1.42163l12.44403-12.44403c2.39264.22235 5.23206 1.96643 5.65997 5.65002l-12.44354 12.43439z" fill="#000000" class="color000 svgShape"></path></svg></g></svg>