<svg width="300" height="267" viewBox="0 0 300 267" fill="none" xmlns="http://www.w3.org/2000/svg">
<path d="M77.3688 261.653C71.0133 260.301 -5.32458 248.096 0.295472 158.092C5.91256 68.0837 12.968 41.0174 42.6461 31.1133C72.3241 21.2091 144.471 -25.6478 201.084 18.9062C257.697 63.4602 318.785 103.423 294.543 174.567C270.301 245.711 266.33 269.441 203.083 265.809C139.836 262.177 107.581 268.097 77.3688 261.653Z" fill="#F9F9F9"/>
<path d="M49.5438 49.9388H131.588C131.988 42.0829 128.079 34.2182 121.104 30.5626C114.126 26.907 105.05 27.6884 98.8016 32.4777C93.2082 27.6677 87.3984 22.7334 80.3429 20.5666C73.2874 18.3999 64.5919 19.7408 60.2352 25.6874C57.225 29.7989 56.8128 35.4199 58.2897 40.2921C51.8986 40.2418 45.5074 40.3927 39.1252 40.742C35.4862 40.9403 30.5246 42 30.3437 45.6319C30.0708 51.0813 49.5438 49.9388 49.5438 49.9388Z" fill="white"/>
<path d="M224.608 48.1214C223.084 47.3133 221.364 47.1771 219.697 47.556C218.691 47.7839 217.722 48.1421 216.734 48.444C214.86 49.0212 214.697 49.5096 213.931 47.8816C213.098 46.1027 214.118 44.2763 212.484 42.4234C211.307 41.0884 209.584 40.3099 207.801 40.3099C207.152 40.3099 206.529 40.4076 205.942 40.5911C204.705 37.6874 203.276 34.9109 200.921 32.6494C196.235 28.1532 189.087 26.2766 182.978 28.7985C180.235 29.9292 177.836 31.794 175.908 34.0288C174.899 35.198 174.013 36.4738 173.259 37.8206C172.574 39.0431 172.272 40.6326 171.45 41.7396C169.644 41.0618 167.98 40.1649 166.097 39.6469C162.411 38.6316 158.401 38.4333 155.174 40.8279C152.526 42.7934 150.847 46.3483 151.705 49.631C152.191 51.4928 153.075 52.8692 154.967 52.8959C157.642 52.9344 160.32 52.8959 162.995 52.8959C172.58 52.8959 182.154 52.8959 191.742 52.8959C201.265 52.8959 210.788 52.8959 220.311 52.8959C223.303 52.8959 229.285 52.8959 229.285 52.8959C229.285 52.8959 227.363 49.5807 224.608 48.1214Z" fill="white"/>
<path d="M259.562 73.6749C260.437 69.1017 258.776 64.0667 255.38 60.8107C251.142 56.7436 244.674 55.0476 239.146 57.3268C236.664 58.3509 234.493 60.0381 232.746 62.0598C231.832 63.1165 231.032 64.2709 230.35 65.4905C229.73 66.5975 229.457 68.0361 228.712 69.0365C227.078 68.4238 225.572 67.6128 223.869 67.1451C220.533 66.2275 216.906 66.0469 213.985 68.2137C211.553 70.0193 210.031 73.2989 210.877 76.3034C211.176 77.369 211.959 79.1094 213.157 79.213C213.504 79.2426 213.869 79.213 214.216 79.213C217.443 79.213 220.669 79.213 223.899 79.213C228.612 79.213 233.321 79.213 238.034 79.213C242.334 79.213 246.637 79.213 250.938 79.213C252.1 79.213 253.266 79.213 254.428 79.213C255.033 79.213 255.638 79.216 256.243 79.213C256.952 79.2101 257.044 79.0798 257.465 78.5086C258.548 77.0374 259.233 75.3887 259.562 73.6749Z" fill="white"/>
<path d="M13.3235 80.3585C12.4486 75.7853 14.1094 70.7503 17.5051 67.4943C21.7432 63.4272 28.2114 61.7312 33.7395 64.0104C36.2219 65.0345 38.3928 66.7217 40.1396 68.7434C41.053 69.8001 41.8538 70.9545 42.5359 72.1741C43.1557 73.2811 43.4286 74.7197 44.173 75.7201C45.8071 75.1074 47.3137 74.2964 49.016 73.8287C52.3525 72.9111 55.9795 72.7305 58.9008 74.8973C61.3327 76.7029 62.8541 79.9825 62.0089 82.9869C61.7093 84.0525 60.9264 85.793 59.7282 85.8937C59.3812 85.9233 59.0165 85.8937 58.6695 85.8937C55.4427 85.8937 52.216 85.8937 48.9864 85.8937C44.2738 85.8937 39.5642 85.8937 34.8517 85.8937C30.5514 85.8937 26.2481 85.8937 21.9478 85.8937C20.7852 85.8937 19.6197 85.8937 18.4571 85.8937C17.8521 85.8937 17.2471 85.8966 16.6421 85.8937C15.9333 85.8907 15.8414 85.7605 15.4202 85.1892C14.3348 83.724 13.6527 82.0753 13.3235 80.3585Z" fill="white"/>
<path d="M61.5755 239.589C60.0482 240.719 58.6661 242.078 58.7729 244.245C59.0013 248.851 66.9257 249.958 70.1672 250.399C75.9089 251.18 81.6594 251.059 87.4307 251.278C108.384 252.068 129.36 252.192 150.325 251.725C161.091 251.485 171.85 251.091 182.607 250.553C192.056 250.082 202.578 250.686 211.529 247.045C216.9 244.86 222.057 242.14 227.093 239.222C231.263 236.803 236.669 234.497 239.14 229.978C243.47 222.054 228.291 220.488 224.115 219.618C207.691 216.193 190.754 215.583 174.048 215.074C157.048 214.556 139.998 214.876 123.07 216.661C101.847 218.898 79.1534 226.064 61.8157 239.417C61.7357 239.473 61.6556 239.532 61.5755 239.589Z" fill="#E5E5E5"/>
<path d="M226.956 148.344H105.35V231.544H226.956V148.344Z" fill="#E5E5E5"/>
<path d="M226.956 148.343H105.35L121.445 129.772C122.192 128.911 123.277 128.414 124.419 128.414H241.996C242.87 128.414 243.339 129.438 242.767 130.098L226.956 148.343Z" fill="white"/>
<path d="M227.019 147.814C223.003 147.814 218.988 147.814 214.972 147.814C205.277 147.814 195.579 147.814 185.884 147.814C174.196 147.814 162.508 147.814 150.82 147.814C140.672 147.814 130.523 147.814 120.374 147.814C117.044 147.814 113.713 147.814 110.383 147.814C109.345 147.814 108.304 147.814 107.266 147.814C106.821 147.814 106.05 147.66 105.626 147.814C105.569 147.834 105.474 147.814 105.412 147.814C105.593 148.065 105.771 148.314 105.952 148.562C109.908 143.998 113.861 139.437 117.818 134.872C119.22 133.253 120.558 131.536 122.044 129.994C123.129 128.867 124.304 128.946 125.668 128.946C135.716 128.946 145.767 128.946 155.815 128.946C171.669 128.946 187.521 128.946 203.376 128.946C215.005 128.946 226.633 128.946 238.262 128.946C239.303 128.946 240.477 128.796 241.509 128.946C242.992 129.166 241.619 130.515 241.053 131.169C236.527 136.391 232.001 141.612 227.478 146.831C227.105 147.26 226.734 147.692 226.36 148.121C225.767 148.805 227.129 149.057 227.562 148.556C231.633 143.859 235.705 139.158 239.777 134.461C240.717 133.378 241.655 132.294 242.595 131.211C243.063 130.672 243.778 130.056 243.737 129.281C243.659 127.795 242.15 127.878 241.076 127.878C230.919 127.878 220.764 127.878 210.606 127.878C194.289 127.878 177.969 127.878 161.651 127.878C150.171 127.878 138.693 127.878 127.213 127.878C126.344 127.878 125.469 127.848 124.603 127.878C122.412 127.955 121.16 129.186 119.843 130.708C115.217 136.048 110.587 141.384 105.961 146.724C105.557 147.189 105.154 147.654 104.751 148.121C104.371 148.559 104.884 148.87 105.29 148.87C109.306 148.87 113.322 148.87 117.337 148.87C127.032 148.87 136.73 148.87 146.425 148.87C158.113 148.87 169.801 148.87 181.489 148.87C191.638 148.87 201.786 148.87 211.935 148.87C215.266 148.87 218.596 148.87 221.927 148.87C223.493 148.87 225.121 149 226.684 148.87C226.755 148.864 226.826 148.87 226.897 148.87C227.722 148.876 227.989 147.814 227.019 147.814Z" fill="#6A79A8"/>
<path d="M105.531 148.343L75.6567 159.952V243.149L105.531 231.972V148.343Z" fill="#F7F7F7"/>
<path d="M105.275 148.154C96.5592 151.54 87.8459 154.927 79.1296 158.313C77.8869 158.795 76.6443 159.278 75.4017 159.76C74.4586 160.127 75.3423 160.361 75.9118 160.139C84.628 156.753 93.3413 153.367 102.058 149.98C103.3 149.498 104.543 149.015 105.786 148.533C106.729 148.166 105.845 147.935 105.275 148.154Z" fill="#6A79A8"/>
<path d="M106.245 231.78C106.245 222.773 106.245 213.762 106.245 204.755C106.245 190.506 106.245 176.256 106.245 162.007C106.245 158.709 106.245 155.409 106.245 152.111C106.245 151.724 104.813 151.975 104.813 152.493C104.813 161.5 104.813 170.511 104.813 179.518C104.813 193.767 104.813 208.017 104.813 222.266C104.813 225.564 104.813 228.864 104.813 232.162C104.813 232.552 106.245 232.301 106.245 231.78Z" fill="#6A79A8"/>
<path d="M105.531 148.344L75.6568 159.95L61.3382 146.035C59.9651 144.7 60.4485 142.394 62.2428 141.722L86.7278 132.561C87.665 132.212 88.7178 132.425 89.4444 133.112L105.531 148.344Z" fill="#F2F2F2"/>
<path d="M104.757 148.646L75.654 159.953L63.4886 147.906C62.1155 146.571 62.5989 144.265 64.3931 143.593C67.2165 142.548 70.0369 141.503 72.8603 140.455C77.0005 138.922 82.0036 135.776 86.5709 136.749C89.8539 137.451 104.416 148.332 104.757 148.646Z" fill="white"/>
<path d="M105.228 147.977C96.5118 151.363 87.7985 154.749 79.0822 158.135C77.8396 158.618 76.597 159.1 75.3543 159.583C75.6746 159.606 75.9949 159.627 76.3182 159.651C72.6585 156.096 69.0017 152.541 65.342 148.986C64.4909 148.157 63.6367 147.328 62.7856 146.5C62.2132 145.943 61.5607 145.422 61.3442 144.62C60.6888 142.184 63.9036 141.586 65.5348 140.976C71.3387 138.804 77.1426 136.634 82.9466 134.461C84.2812 133.961 86.7931 132.428 88.2523 133.088C88.8454 133.354 89.3051 133.905 89.7707 134.346C90.6071 135.139 91.4434 135.929 92.2797 136.723C96.4762 140.698 100.676 144.673 104.872 148.649C105.296 149.048 106.652 148.483 106.192 148.048C102.242 144.306 98.2912 140.565 94.3409 136.823C92.9411 135.497 91.5887 134.062 90.1118 132.818C88.2849 131.282 86.3898 132.212 84.4858 132.925C78.3705 135.213 72.2551 137.501 66.1368 139.789C64.6184 140.358 62.8508 140.778 61.4421 141.604C59.7931 142.569 59.3068 144.709 60.5553 146.201C60.9438 146.665 61.4273 147.065 61.8602 147.488C66.2406 151.745 70.621 156.001 74.9984 160.258C75.2564 160.509 75.6539 160.444 75.9623 160.326C84.6786 156.94 93.3919 153.553 102.108 150.167C103.351 149.685 104.593 149.202 105.836 148.72C106.752 148.356 105.931 147.704 105.228 147.977Z" fill="#6A79A8"/>
<path d="M197.083 159.953H75.0991V243.153H197.083V159.953Z" fill="#F2F2F2"/>
<path d="M197.083 161.675C193.171 167.498 188.663 175.327 185.86 180.326C184.164 183.354 180.964 185.231 177.491 185.24L75.0991 185.465V243.149H197.083V161.675Z" fill="white"/>
<path d="M226.957 148.344L197.083 159.953V243.15L226.957 231.973V148.344Z" fill="#E5E5E5"/>
<path d="M226.957 175.925L217.036 179.9C213.626 181.265 209.723 180.179 207.513 177.248L197.083 163.401V243.153L226.957 231.976V175.925Z" fill="#F2F2F2"/>
<path d="M196.368 163.698C196.368 172.329 196.368 180.96 196.368 189.592C196.368 203.335 196.368 217.081 196.368 230.824C196.368 233.962 196.368 237.097 196.368 240.234C196.368 240.542 197.801 240.314 197.801 239.852C197.801 231.221 197.801 222.59 197.801 213.958C197.801 200.215 197.801 186.469 197.801 172.726C197.801 169.588 197.801 166.453 197.801 163.316C197.801 163.008 196.368 163.236 196.368 163.698Z" fill="#6A79A8"/>
<path d="M74.8054 160.302C81.0661 160.302 87.3268 160.302 93.5874 160.302C107.411 160.302 121.234 160.302 135.054 160.302C148.961 160.302 162.867 160.302 176.773 160.302C181.48 160.302 186.189 160.302 190.896 160.302C192.815 160.302 194.843 160.491 196.759 160.302C197.83 160.195 198.942 159.565 199.93 159.18C202.821 158.055 205.716 156.934 208.607 155.809C214.438 153.544 220.269 151.277 226.099 149.013C226.473 148.868 226.846 148.723 227.223 148.577C228.163 148.213 227.294 147.882 226.692 148.116C222.217 149.853 217.742 151.594 213.266 153.331C207.934 155.403 202.439 157.25 197.21 159.571C196.501 159.885 197.275 159.589 197.302 159.604C197.177 159.532 196.789 159.604 196.649 159.604C195.597 159.604 194.544 159.604 193.491 159.604C189.318 159.604 185.142 159.604 180.97 159.604C167.541 159.604 154.112 159.604 140.683 159.604C126.557 159.604 112.435 159.604 98.3088 159.604C90.7966 159.604 83.2429 159.384 75.7337 159.604C75.621 159.606 75.5083 159.604 75.3927 159.604C74.9241 159.604 73.8475 160.302 74.8054 160.302Z" fill="#6A79A8"/>
<path d="M226.23 174.255C226.23 180.779 226.23 187.303 226.23 193.827C226.23 204.172 226.23 214.514 226.23 224.86C226.23 227.248 226.23 229.637 226.23 232.026C226.366 231.866 226.503 231.706 226.636 231.546C222.116 233.236 217.6 234.927 213.08 236.62C207.765 238.609 202.314 240.391 197.089 242.602C196.472 242.862 197.243 242.649 197.047 242.623C196.825 242.593 196.581 242.623 196.359 242.623C195.285 242.623 194.212 242.623 193.138 242.623C188.933 242.623 184.727 242.623 180.522 242.623C167.064 242.623 153.608 242.623 140.15 242.623C126.083 242.623 112.02 242.623 97.9531 242.623C92.9233 242.623 87.8934 242.623 82.8635 242.623C81.2709 242.623 79.6783 242.623 78.0857 242.623C77.2761 242.623 76.2944 242.472 75.4937 242.623C75.3899 242.643 75.2624 242.623 75.1526 242.623C75.375 242.779 75.5945 242.939 75.8169 243.096C75.8169 236.256 75.8169 229.415 75.8169 222.572C75.8169 211.661 75.8169 200.753 75.8169 189.843C75.8169 187.33 75.8169 184.82 75.8169 182.307C75.8169 181.555 74.3667 181.765 74.3667 182.413C74.3667 189.254 74.3667 196.094 74.3667 202.938C74.3667 213.848 74.3667 224.756 74.3667 235.667C74.3667 238.18 74.3667 240.69 74.3667 243.203C74.3667 243.576 74.7137 243.676 75.031 243.676C81.2917 243.676 87.5523 243.676 93.813 243.676C107.535 243.676 121.261 243.676 134.983 243.676C148.913 243.676 162.843 243.676 176.773 243.676C181.51 243.676 186.249 243.676 190.985 243.676C192.913 243.676 195.051 243.937 196.967 243.676C197.96 243.54 198.996 242.975 199.924 242.629C202.783 241.56 205.639 240.488 208.498 239.42C214.376 237.221 220.254 235.021 226.132 232.822C226.512 232.68 226.888 232.538 227.268 232.396C227.44 232.331 227.674 232.118 227.674 231.916C227.674 225.392 227.674 218.869 227.674 212.345C227.674 201.999 227.674 191.657 227.674 181.312C227.674 178.923 227.674 176.535 227.674 174.146C227.683 173.397 226.23 173.607 226.23 174.255Z" fill="#6A79A8"/>
<path d="M197.083 159.953H75.0992L59.0161 178.512C58.5505 179.048 58.933 179.883 59.6448 179.883H179.434C179.674 179.883 179.905 179.779 180.062 179.596L197.083 159.953Z" fill="#F2F2F2"/>
<path d="M197.083 159.953H76.3005C74.441 163.538 72.6556 167.17 70.6923 170.698C69.4853 172.868 69.254 176.405 72.7802 176.405H176.361C178.333 176.405 180.232 175.659 181.67 174.315L197.083 159.953Z" fill="white"/>
<path d="M197.347 159.488C191.522 159.488 185.697 159.488 179.873 159.488C166.8 159.488 153.724 159.488 140.651 159.488C126.925 159.488 113.2 159.488 99.4746 159.488C91.6985 159.488 83.9194 159.488 76.1432 159.488C75.553 159.488 74.9836 159.417 74.4913 159.811C74.0435 160.166 73.6728 160.755 73.302 161.184C72.4657 162.149 71.6294 163.117 70.7901 164.082C66.8071 168.679 62.8241 173.273 58.8411 177.87C57.99 178.85 57.7764 180.223 59.5055 180.348C60.1668 180.395 60.8489 180.348 61.5133 180.348C65.0039 180.348 68.4976 180.348 71.9882 180.348C84.3553 180.348 96.7194 180.348 109.087 180.348C123.091 180.348 137.092 180.348 151.096 180.348C159.851 180.348 168.609 180.348 177.364 180.348C177.945 180.348 178.538 180.383 179.119 180.348C180.528 180.259 181.169 179.161 182.017 178.181C186.198 173.356 190.38 168.528 194.562 163.703C195.597 162.508 196.635 161.312 197.67 160.116C198.242 159.456 196.866 159.361 196.495 159.787C192.527 164.366 188.556 168.949 184.588 173.528C182.921 175.452 181.308 177.447 179.573 179.314C179.345 179.56 179.917 179.356 179.446 179.421C179.113 179.468 178.74 179.421 178.408 179.421C168.22 179.421 158.03 179.421 147.843 179.421C131.7 179.421 115.555 179.421 99.4123 179.421C87.5227 179.421 75.6331 179.421 63.7435 179.421C62.6729 179.421 61.4717 179.575 60.41 179.421C60.2884 179.403 60.0185 179.483 59.9088 179.421C58.9805 178.879 60.3863 177.769 60.7036 177.405C65.2946 172.107 69.8855 166.811 74.4735 161.513C74.8768 161.048 75.2802 160.584 75.6835 160.119C75.3988 160.22 75.1171 160.317 74.8324 160.418C78.8806 160.418 82.9258 160.418 86.9741 160.418C96.6927 160.418 106.408 160.418 116.127 160.418C127.833 160.418 139.539 160.418 151.244 160.418C161.414 160.418 171.583 160.418 181.753 160.418C186.676 160.418 191.688 160.69 196.605 160.418C196.676 160.415 196.748 160.418 196.819 160.418C197.433 160.415 198.311 159.488 197.347 159.488Z" fill="#6A79A8"/>
<path d="M226.957 148.344L197.083 159.95L213.762 176.035C214.124 176.384 214.658 176.493 215.129 176.319L242.319 166.145C243.212 165.811 243.458 164.665 242.782 163.996L226.957 148.344Z" fill="#F2F2F2"/>
<path d="M225.984 148.723L197.445 160.095L212.448 175.224C212.775 175.552 213.252 175.656 213.679 175.49C217.431 174.022 221.183 172.554 224.937 171.085C227.209 170.197 229.478 169.309 231.749 168.421C233.974 167.551 237.085 166.5 236.815 163.502C236.69 162.14 235.762 161.039 234.863 160.08C233.846 159.003 226.485 149.238 225.984 148.723Z" fill="white"/>
<path d="M226.633 147.897C217.917 151.283 209.204 154.669 200.487 158.055C199.245 158.538 198.002 159.02 196.76 159.503C196.368 159.654 196.235 160.089 196.534 160.376C200.642 164.337 204.749 168.3 208.857 172.26C210.274 173.625 211.642 175.265 213.21 176.461C214.667 177.571 216.915 176.221 218.389 175.667C224.898 173.231 231.408 170.795 237.918 168.359C239.463 167.782 241.168 167.329 242.645 166.592C245.492 165.168 242.719 162.963 241.456 161.714C236.841 157.15 232.227 152.585 227.615 148.021C227.135 147.544 225.782 148.145 226.307 148.666C230.13 152.449 233.953 156.232 237.776 160.012C238.79 161.015 239.804 162.019 240.818 163.022C241.21 163.41 241.824 163.833 242.114 164.304C243.158 165.988 239.427 166.66 238.404 167.042C232.15 169.383 225.898 171.722 219.643 174.063C218.534 174.478 217.425 174.895 216.316 175.309C215.945 175.448 215.239 175.886 214.833 175.863C214.352 175.836 213.789 175.102 213.477 174.803C212.608 173.965 211.739 173.128 210.87 172.29C206.46 168.037 202.047 163.78 197.637 159.527C197.563 159.817 197.489 160.11 197.412 160.4C206.128 157.014 214.842 153.627 223.558 150.241C224.8 149.759 226.043 149.276 227.286 148.794C228.19 148.438 227.393 147.604 226.633 147.897Z" fill="#6A79A8"/>
<path d="M187.726 181.827C187.726 186.54 187.726 191.252 187.726 195.964C187.726 196.737 189.179 196.545 189.179 195.87C189.179 191.157 189.179 186.445 189.179 181.736C189.179 180.96 187.726 181.152 187.726 181.827Z" fill="#6A79A8"/>
<path d="M187.738 198.99C187.738 199.733 187.738 200.476 187.738 201.219C187.738 201.817 189.17 201.518 189.17 201.041C189.17 200.298 189.17 199.555 189.17 198.812C189.17 198.214 187.738 198.513 187.738 198.99Z" fill="#6A79A8"/>
<path d="M187.729 203.787C187.729 205.723 187.729 207.659 187.729 209.595C187.729 210.32 189.176 210.092 189.176 209.476C189.176 207.541 189.176 205.605 189.176 203.669C189.176 202.941 187.729 203.169 187.729 203.787Z" fill="#6A79A8"/>
<path d="M203.592 225.315C207.901 223.927 212.214 222.536 216.523 221.148C217.383 220.869 217.143 219.907 216.265 220.192C211.956 221.58 207.643 222.971 203.334 224.359C202.474 224.635 202.714 225.597 203.592 225.315Z" fill="#D1D1D1"/>
<path d="M203.563 220.197C207.854 218.794 212.142 217.394 216.434 215.991C217.273 215.719 217.092 214.952 216.232 215.233C211.941 216.636 207.652 218.036 203.361 219.44C202.522 219.715 202.702 220.478 203.563 220.197Z" fill="#D1D1D1"/>
<path d="M203.552 215.234C207.822 213.819 212.093 212.404 216.364 210.992C217.191 210.72 217.037 210.045 216.186 210.326C211.915 211.741 207.644 213.156 203.374 214.568C202.546 214.843 202.701 215.518 203.552 215.234Z" fill="#D1D1D1"/>
<path d="M203.604 229.19C204.556 228.885 205.508 228.583 206.46 228.278C206.757 228.183 207.134 227.923 207.036 227.559C206.944 227.216 206.472 227.13 206.179 227.224C205.227 227.529 204.275 227.831 203.323 228.136C203.026 228.231 202.649 228.491 202.747 228.855C202.839 229.196 203.311 229.282 203.604 229.19Z" fill="#D1D1D1"/>
<path d="M208.563 227.384C209.524 227.08 210.485 226.772 211.443 226.467C211.629 226.408 212.148 226.239 212.071 225.955C211.997 225.682 211.437 225.771 211.268 225.825C210.307 226.129 209.346 226.437 208.388 226.742C208.201 226.801 207.682 226.97 207.759 227.254C207.833 227.527 208.394 227.438 208.563 227.384Z" fill="#D1D1D1"/>
<path d="M213.638 225.842C214.607 225.534 215.574 225.224 216.544 224.916C216.769 224.845 217.241 224.649 217.155 224.333C217.075 224.031 216.547 224.063 216.333 224.131C215.364 224.439 214.397 224.75 213.427 225.058C213.202 225.129 212.73 225.324 212.816 225.641C212.899 225.943 213.424 225.91 213.638 225.842Z" fill="#D1D1D1"/>
<path d="M120.208 222.131C124.022 217.703 130.318 215.133 136.048 214.894C140.399 214.71 144.785 215.728 148.62 217.786C150.097 218.576 152.09 219.917 153.054 220.882C153.528 221.355 154.881 220.758 154.362 220.24C151.322 217.203 146.947 215.279 142.81 214.373C135.838 212.845 128.542 214.364 122.717 218.449C121.389 219.381 120.063 220.441 118.998 221.678C118.408 222.368 119.766 222.646 120.208 222.131Z" fill="#6A79A8"/>
<path d="M125.117 204.018C125.392 205.232 124.734 206.469 123.643 206.777C122.551 207.085 121.442 206.351 121.166 205.137C120.89 203.924 121.549 202.686 122.64 202.378C123.729 202.068 124.838 202.802 125.117 204.018Z" fill="#6A79A8"/>
<path d="M151.354 207.615C152.48 207.615 153.392 206.598 153.392 205.345C153.392 204.091 152.48 203.074 151.354 203.074C150.229 203.074 149.317 204.091 149.317 205.345C149.317 206.598 150.229 207.615 151.354 207.615Z" fill="#6A79A8"/>
<path d="M164.377 151.872C157.814 152.659 150.749 153.521 144.5 150.798C139.31 148.536 134.995 143.782 135.327 137.842C135.674 131.667 140.182 126.836 145.639 124.421C151.654 121.76 158.608 121.467 164.994 122.784C168.045 123.412 171.726 124.311 174.273 126.206C176.403 127.789 177.245 130.616 175.184 132.602C173.671 134.059 171.429 134.716 169.454 135.258C167.39 135.823 165.293 136.35 163.184 136.717C152.428 138.585 140.221 136.812 131.783 129.432C127.59 125.765 124.683 120.375 124.669 114.736C124.651 108.979 127.91 103.733 132.285 100.181C141.042 93.0715 153.223 91.0469 164.196 90.9966C169.62 90.9729 175.038 91.4465 180.395 92.296C183.254 92.7489 186.225 93.1811 188.862 94.4361C191.525 95.703 194.227 98.3463 193.518 101.57C192.848 104.616 189.327 105.583 186.712 106.341C183.343 107.321 179.84 107.777 176.34 107.928C169.748 108.215 163.045 107.724 156.503 106.913C150.325 106.149 144.133 105.009 138.177 103.177C133.856 101.848 129.559 100.096 125.917 97.3754C122.361 94.7203 119.648 91.1387 118.449 86.8407C117.109 82.0307 117.48 76.6879 119.292 72.0466C122.883 62.844 131.929 57.1637 140.864 53.9492C153.006 49.5832 166.352 48.0587 179.196 48.852C185.786 49.2605 192.314 50.3557 198.696 52.0429C201.952 52.9013 205.167 53.9225 208.293 55.1746C210.9 56.2195 213.551 57.4064 214.883 60.0468C217.445 65.1261 212.371 69.9391 208.323 72.2213C203.88 74.7254 198.684 76.2025 193.776 77.5049C187.225 79.2424 180.445 79.9025 173.695 80.2606C167.253 80.601 160.788 80.829 154.338 80.7254C141.914 80.527 129.171 78.9582 117.93 73.3461C108.167 68.4739 98.5523 58.5431 100.993 46.6735C102.147 41.0731 106.337 36.2187 110.65 32.6845C115.125 29.017 120.35 26.4182 125.778 24.4675C136.964 20.4449 149.008 19.0477 160.815 18.3551C174 17.5825 187.171 18.2041 200.191 20.4685C206.751 21.6081 213.234 23.1414 219.619 25.027C220.023 25.1454 221.313 24.5326 220.77 24.3698C206.638 20.1933 192.014 17.7601 177.278 17.3191C164.116 16.9254 150.583 17.8312 137.676 20.5011C125.956 22.9254 113.695 27.2529 105.465 36.3431C101.426 40.8038 98.6858 46.2561 99.3382 52.3863C99.967 58.2944 103.099 63.6698 107.408 67.6747C117.008 76.5991 131.098 79.861 143.786 80.974C150.601 81.5719 157.452 81.5808 164.285 81.3647C171.563 81.1368 178.885 80.8882 186.092 79.7693C192.133 78.831 198.085 77.1556 203.812 75.0244C208.427 73.3076 213.32 70.8478 215.865 66.4226C217.161 64.1701 217.454 61.6363 216.141 59.3156C214.732 56.8263 212.252 55.6482 209.708 54.6152C203.234 51.9867 196.326 50.2432 189.431 49.151C175.412 46.928 160.916 47.6858 147.196 51.3148C137.163 53.9699 126.528 58.4572 120.475 67.3313C114.81 75.6371 114.475 87.7435 121.632 95.2915C125.001 98.8436 129.5 101.158 134.049 102.825C139.717 104.9 145.713 106.158 151.666 107.081C158.884 108.203 166.284 108.816 173.591 108.73C176.984 108.689 180.383 108.425 183.713 107.75C186.608 107.164 189.814 106.389 192.346 104.799C194.345 103.547 195.502 101.386 194.921 99.0093C194.239 96.2239 191.67 94.3976 189.138 93.3883C186.376 92.2871 183.345 91.8668 180.421 91.4258C177.539 90.9907 174.638 90.671 171.729 90.4697C160.124 89.6675 147.852 90.7124 137.341 96.0523C132.228 98.6512 127.554 102.339 124.995 107.579C122.34 113.016 122.88 119.229 125.887 124.406C131.857 134.686 145.016 138.487 156.242 138.117C160.242 137.984 182.557 135.719 177.117 127.236C175.474 124.676 171.862 123.666 169.113 122.855C166.04 121.952 162.87 121.42 159.67 121.295C153.534 121.061 146.98 122.302 141.76 125.667C136.976 128.751 133.391 134.041 133.931 139.923C134.464 145.76 139.334 150.046 144.589 151.934C150.853 154.184 157.713 153.358 164.166 152.585C164.827 152.514 165.376 151.751 164.377 151.872Z" fill="#6A79A8"/>
</svg>
