<svg id="SvgjsSvg1001" width="288" height="288" xmlns="http://www.w3.org/2000/svg" version="1.1" xmlns:xlink="http://www.w3.org/1999/xlink" xmlns:svgjs="http://svgjs.com/svgjs"><defs id="SvgjsDefs1002"></defs><g id="SvgjsG1008"><svg xmlns="http://www.w3.org/2000/svg" viewBox="0 0 48 48" width="288" height="288"><path fill="none" d="M0 0h48v48H0z"></path><path d="M36 16h-2v-4c0-5.52-4.48-10-10-10S14 6.48 14 12v4h-2c-2.21 0-4 1.79-4 4v20c0 2.21 1.79 4 4 4h24c2.21 0 4-1.79 4-4V20c0-2.21-1.79-4-4-4zM24 5.8c3.42 0 6.2 2.78 6.2 6.2v4H18v-4h-.2c0-3.42 2.78-6.2 6.2-6.2zM36 40H12V20h24v20zm-12-6c2.21 0 4-1.79 4-4s-1.79-4-4-4-4 1.79-4 4 1.79 4 4 4z" fill="#ffffff" class="color000 svgShape"></path></svg></g></svg>