<!DOCTYPE svg PUBLIC "-//W3C//DTD SVG 1.1//EN" "http://www.w3.org/Graphics/SVG/1.1/DTD/svg11.dtd">

<!-- Uploaded to: SVG Repo, www.svgrepo.com, Transformed by: SVG Repo Mixer Tools -->
<svg fill="#F44336" height="800px" width="800px" version="1.1" id="Layer_1" xmlns="http://www.w3.org/2000/svg" xmlns:xlink="http://www.w3.org/1999/xlink" viewBox="0 0 512 512" xml:space="preserve">

<g id="SVGRepo_bgCarrier" stroke-width="0"/>

<g id="SVGRepo_tracerCarrier" stroke-linecap="round" stroke-linejoin="round"/>

<g id="SVGRepo_iconCarrier"> <g> <g> <path d="M422.957,66.783H372.87V50.087C372.87,22.468,350.402,0,322.783,0H189.217c-27.619,0-50.087,22.468-50.087,50.087v16.696 H89.044c-27.619,0-50.087,22.468-50.087,50.087v33.391c0,9.223,7.479,16.696,16.696,16.696h400.696 c9.217,0,16.696-7.473,16.696-16.696V116.87C473.043,89.251,450.576,66.783,422.957,66.783z M339.478,66.783H172.522V50.087 c0-9.206,7.49-16.696,16.696-16.696h133.565c9.206,0,16.696,7.49,16.696,16.696V66.783z"/> </g> </g> <g> <g> <path d="M72.348,200.348v261.565c0,27.619,22.468,50.087,50.087,50.087h267.13c27.619,0,50.087-22.468,50.087-50.087V200.348 H72.348z M210.523,447.914l-17.837,1.152c-39.863,2.591-66.59-40.44-46.598-75.027l4.668-8.087 c-6.801-0.587-12.808-5.293-14.679-12.266c-2.383-8.909,2.899-18.061,11.802-20.447l32.25-8.642 c8.911-2.415,18.581,2.987,20.683,12.645l8.416,31.415c2.381,8.908-2.902,18.06-11.815,20.445 c-6.812,1.843-13.786-0.853-17.791-6.378l-4.621,8.008c-6.681,11.572,2.22,25.902,15.532,25.006l17.837-1.152 c9.087-0.462,17.141,6.375,17.74,15.587C226.697,439.376,219.73,447.315,210.523,447.914z M241.967,278.042l-7.924,16.022 c-4.098,8.261-14.12,11.63-22.37,7.565c-8.26-4.092-11.651-14.102-7.564-22.369l7.924-16.022 c17.694-35.775,68.31-37.436,88.272-2.837l4.68,8.104c3.923-5.589,11.025-8.458,17.961-6.598 c8.902,2.386,14.185,11.543,11.804,20.451l-8.652,32.255c-2.351,8.747-11.608,14.55-21.119,11.621l-31.588-8.464 c-8.902-2.386-14.185-11.538-11.804-20.445c1.846-6.879,7.733-11.547,14.419-12.24l-4.616-7.994 C264.787,265.667,247.938,265.963,241.967,278.042z M321.608,450.783h-9.449c2.904,6.186,1.942,13.728-3.171,18.837 c-6.521,6.521-17.087,6.521-23.609,0l-23.609-23.609c-6.445-6.446-6.825-17.552,0.693-24.302l22.915-22.921 c6.521-6.521,17.087-6.521,23.609,0c5.044,5.04,6.083,12.462,3.324,18.603h9.295c13.392,0,21.279-14.884,13.891-25.956 l-9.913-14.869c-5.12-7.674-3.043-18.038,4.63-23.152c7.664-5.109,18.023-3.05,23.154,4.63l9.913,14.869 C385.454,406.145,361.568,450.783,321.608,450.783z"/> </g> </g> </g>

</svg>