<svg xmlns="http://www.w3.org/2000/svg" viewBox="0 0 24 24" id="Like"><path d="M19.862 21.484h-9.229c-.833 0-2.52-1.094-2.52-1.988V11.35c0-.182.098-.35.256-.438 1.841-1.028 2.772-2.854 3.744-5.657V2.569c0-.091.024-.18.071-.258.304-.506.83-.796 1.443-.796.789 0 1.619.477 2.221 1.271.607.805 1.473 2.582.758 5.696h4.213c.938 0 3.065.966 3.065 2.554 0 .523-.062 1.321-.395 1.788.262.733.312 1.922-.493 2.76.066 1.412-.289 2.438-1.038 3-.013.746-.356 1.658-.874 2.252-.365.424-.789.648-1.222.648zm-10.747-9.85v7.86c.082.268 1.096.988 1.52.988h9.228c.132 0 .305-.113.475-.308.404-.465.688-1.284.618-1.791a.502.502 0 0 1 .258-.51c.812-.438.834-1.729.777-2.461a.502.502 0 0 1 .178-.424c.726-.604.502-1.712.294-2.029a.5.5 0 0 1 .305-.76c-.021-.027.123-.435.123-1.168 0-.813-1.486-1.554-2.064-1.554h-4.858c-.157 0-.304-.072-.397-.197s-.125-.287-.082-.438c.64-2.263.481-4.251-.43-5.458-.486-.646-1.056-.874-1.424-.874-.219 0-.392.071-.516.213V5.33c0 .058-.01.109-.027.163-.997 2.883-2.02 4.928-3.978 6.141z" fill="#4b6bfb" class="color000000 svgShape"></path><path d="M7.361 22.484H1.869A1.756 1.756 0 0 1 .115 20.73V10.236c0-.967.787-1.753 1.754-1.753h5.492c.967 0 1.754.786 1.754 1.753V20.73c0 .967-.787 1.754-1.754 1.754zM1.869 9.483a.754.754 0 0 0-.754.753V20.73c0 .416.338.754.754.754h5.492a.755.755 0 0 0 .754-.754V10.236a.754.754 0 0 0-.754-.753H1.869z" fill="#4b6bfb" class="color000000 svgShape"></path></svg>